<svg id="svg" viewBox="-60 10 500 500" fill="currentColor"
    xmlns="http://www.w3.org/2000/svg">
    <g>
        <path id="path0" d="M108.419 56.238 C 76.567 61.527,61.414 73.942,68.790 88.706 C 71.018 93.167,73.094 92.920,85.627 86.705 C 99.709 79.722,106.772 77.833,119.097 77.751 C 143.625 77.588,152.689 87.527,152.756 114.655 L 152.772 121.301 134.908 121.824 C 108.698 122.591,92.880 125.903,80.858 133.142 C 52.249 150.368,54.097 195.341,83.974 208.981 C 106.108 219.087,133.293 214.739,151.109 198.245 L 156.057 193.663 156.057 201.535 C 156.057 208.904,156.182 209.489,157.998 210.679 C 162.406 213.568,175.414 212.970,178.654 209.729 C 180.736 207.648,180.030 99.214,177.879 90.760 C 170.951 63.523,144.305 50.280,108.419 56.238 M270.226 55.601 C 251.847 57.567,229.752 66.433,226.203 73.265 C 224.802 75.963,224.664 86.435,225.996 88.966 C 228.215 93.183,230.360 92.983,240.897 87.581 C 272.063 71.601,300.740 74.613,307.566 94.583 C 308.617 97.657,309.181 102.321,309.449 110.136 L 309.830 121.299 292.287 121.829 C 246.250 123.218,224.225 134.652,218.866 159.943 C 208.412 209.274,271.146 234.218,310.678 196.449 L 313.758 193.506 313.758 201.457 C 313.758 211.593,314.528 212.320,325.257 212.320 C 330.626 212.320,332.841 211.973,334.533 210.864 L 336.756 209.408 336.756 154.487 C 336.756 87.326,336.392 84.488,326.137 71.601 C 316.445 59.421,294.152 53.042,270.226 55.601 M152.772 157.076 L 152.772 172.058 147.228 177.298 C 121.135 201.959,88.519 197.028,88.610 168.435 C 88.670 149.491,101.477 142.286,135.318 142.160 L 152.772 142.094 152.772 157.076 M309.651 157.185 L 309.651 172.276 303.696 177.924 C 278.536 201.790,246.361 196.918,246.073 169.199 C 245.867 149.416,258.119 142.297,292.608 142.161 L 309.651 142.094 309.651 157.185 M93.805 231.219 C 90.239 232.768,93.180 225.179,53.385 335.523 C 18.917 431.093,17.263 436.203,20.111 438.286 C 23.955 441.096,42.217 440.284,45.337 437.164 C 46.141 436.360,50.735 424.158,55.546 410.048 L 64.295 384.394 107.107 384.394 L 149.920 384.394 158.943 410.060 C 169.359 439.685,168.946 439.030,177.751 439.855 C 191.363 441.131,198.440 438.985,197.731 433.798 C 197.258 430.337,127.731 237.107,125.921 234.223 C 123.282 230.019,101.300 227.962,93.805 231.219 M124.803 311.193 C 134.349 338.468,142.017 360.926,141.844 361.099 C 141.671 361.272,125.812 361.318,106.602 361.200 L 71.674 360.986 89.020 310.737 C 98.560 283.101,106.609 260.739,106.906 261.045 C 107.203 261.351,115.257 283.918,124.803 311.193 M270.226 283.117 C 247.026 285.598,226.609 295.329,225.143 304.603 C 222.852 319.101,227.286 322.324,240.094 315.470 C 265.072 302.104,291.360 301.347,302.497 313.675 C 307.325 319.019,308.996 324.805,309.459 337.782 L 309.861 349.076 299.198 349.076 C 238.827 349.076,209.842 370.469,218.792 408.419 C 227.084 443.575,275.350 453.735,307.103 427.007 L 312.936 422.097 312.936 428.745 C 312.936 434.640,313.156 435.613,314.880 437.336 C 318.227 440.684,330.140 441.120,334.944 438.071 L 336.828 436.875 336.563 379.629 C 336.269 316.105,336.270 316.115,330.431 305.388 C 321.394 288.784,298.033 280.142,270.226 283.117 M309.651 384.705 L 309.651 399.801 303.792 405.328 C 277.683 429.958,243.686 423.455,245.777 394.230 C 247.055 376.371,259.576 369.807,292.608 369.677 L 309.651 369.610 309.651 384.705 " stroke="none" fill-rule="evenodd"></path>
    </g>
</svg>