<svg id="svg" fill="currentColor" viewBox="-65 10 500 500"
    xmlns="http://www.w3.org/2000/svg">
    <g>
        <path id="path0" d="M93.805 3.703 C 90.239 5.252,93.180 -2.336,53.385 108.008 C 18.917 203.578,17.263 208.688,20.111 210.770 C 23.955 213.581,42.217 212.768,45.337 209.648 C 46.141 208.844,50.735 196.642,55.546 182.533 L 64.295 156.879 107.107 156.879 L 149.920 156.879 158.943 182.545 C 169.359 212.169,168.946 211.515,177.751 212.340 C 191.363 213.616,198.440 211.470,197.731 206.283 C 197.258 202.821,127.731 9.592,125.921 6.708 C 123.282 2.503,101.300 0.447,93.805 3.703 M124.803 83.678 C 134.349 110.953,142.017 133.411,141.844 133.584 C 141.671 133.757,125.812 133.802,106.602 133.684 L 71.674 133.470 89.020 83.222 C 98.560 55.585,106.609 33.224,106.906 33.530 C 107.203 33.836,115.257 56.402,124.803 83.678 M270.226 55.601 C 247.026 58.083,226.609 67.813,225.143 77.088 C 222.852 91.585,227.286 94.809,240.094 87.955 C 265.072 74.588,291.360 73.832,302.497 86.159 C 307.325 91.504,308.996 97.290,309.459 110.267 L 309.861 121.561 299.198 121.561 C 238.827 121.561,209.842 142.953,218.792 180.904 C 227.084 216.060,275.350 226.220,307.103 199.492 L 312.936 194.582 312.936 201.230 C 312.936 207.125,313.156 208.097,314.880 209.821 C 318.227 213.168,330.140 213.605,334.944 210.556 L 336.828 209.360 336.563 152.113 C 336.269 88.590,336.270 88.600,330.431 77.873 C 321.394 61.269,298.033 52.627,270.226 55.601 M309.651 157.190 L 309.651 172.286 303.792 177.812 C 277.683 202.442,243.686 195.939,245.777 166.715 C 247.055 148.856,259.576 142.291,292.608 142.161 L 309.651 142.094 309.651 157.190 M93.805 231.219 C 90.239 232.768,93.180 225.179,53.385 335.523 C 18.917 431.093,17.263 436.203,20.111 438.286 C 23.955 441.096,42.217 440.284,45.337 437.164 C 46.141 436.360,50.735 424.158,55.546 410.048 L 64.295 384.394 107.107 384.394 L 149.920 384.394 158.943 410.060 C 169.359 439.685,168.946 439.030,177.751 439.855 C 191.363 441.131,198.440 438.985,197.731 433.798 C 197.258 430.337,127.731 237.107,125.921 234.223 C 123.282 230.019,101.300 227.962,93.805 231.219 M124.803 311.193 C 134.349 338.468,142.017 360.926,141.844 361.099 C 141.671 361.272,125.812 361.318,106.602 361.200 L 71.674 360.986 89.020 310.737 C 98.560 283.101,106.609 260.739,106.906 261.045 C 107.203 261.351,115.257 283.918,124.803 311.193 M270.226 283.117 C 247.026 285.598,226.609 295.329,225.143 304.603 C 222.852 319.101,227.286 322.324,240.094 315.470 C 265.072 302.104,291.360 301.347,302.497 313.675 C 307.325 319.019,308.996 324.805,309.459 337.782 L 309.861 349.076 299.198 349.076 C 238.827 349.076,209.842 370.469,218.792 408.419 C 227.084 443.575,275.350 453.735,307.103 427.007 L 312.936 422.097 312.936 428.745 C 312.936 434.640,313.156 435.613,314.880 437.336 C 318.227 440.684,330.140 441.120,334.944 438.071 L 336.828 436.875 336.563 379.629 C 336.269 316.105,336.270 316.115,330.431 305.388 C 321.394 288.784,298.033 280.142,270.226 283.117 M309.651 384.705 L 309.651 399.801 303.792 405.328 C 277.683 429.958,243.686 423.455,245.777 394.230 C 247.055 376.371,259.576 369.807,292.608 369.677 L 309.651 369.610 309.651 384.705 " stroke="none" fill-rule="evenodd"></path>
    </g>
</svg>