<svg id="svg" fill="currentColor" viewBox="-45 -25 500 500"
    xmlns="http://www.w3.org/2000/svg">
    <g>
        <path d="M75.154 68.686 C 49.178 72.597,24.419 84.253,19.613 94.835 C 17.712 99.019,17.478 111.983,19.227 116.169 C 21.304 121.139,24.132 120.981,32.767 115.410 C 80.404 84.680,125.667 95.500,125.667 137.618 C 125.667 169.734,105.481 185.131,62.012 186.172 C 48.179 186.503,42.646 186.923,41.346 187.739 C 36.428 190.828,36.054 206.289,40.763 211.885 L 42.856 214.374 59.124 214.374 C 115.357 214.374,141.748 231.463,139.405 266.359 C 136.467 310.122,84.247 323.196,27.771 294.308 C 12.844 286.673,11.088 287.671,11.088 303.785 C 11.088 320.082,15.831 324.911,39.014 332.218 C 82.442 345.905,128.258 339.415,153.250 316.036 C 193.983 277.933,178.102 210.798,125.587 199.094 C 122.243 198.349,118.971 197.584,118.316 197.395 C 117.661 197.205,120.074 196.029,123.678 194.781 C 175.076 176.984,178.766 97.905,129.247 75.452 C 116.744 69.783,90.049 66.444,75.154 68.686 M288.706 69.089 C 243.738 75.622,217.666 107.541,217.666 156.057 C 217.666 207.925,243.401 233.485,295.688 233.546 C 315.923 233.569,331.414 230.118,348.361 221.812 C 356.501 217.822,355.808 217.155,354.787 227.987 C 348.271 297.147,304.870 325.170,239.076 302.699 C 226.996 298.573,225.051 300.135,225.051 313.963 C 225.051 330.947,237.823 337.531,273.511 338.942 C 352.100 342.051,392.817 288.638,390.698 185.216 C 388.907 97.761,355.235 59.423,288.706 69.089 M320.146 99.361 C 341.698 107.018,352.727 131.736,354.518 176.399 L 355.037 189.322 350.619 191.952 C 327.363 205.797,295.204 209.624,276.508 200.772 C 244.108 185.432,246.287 118.222,279.718 101.764 C 290.567 96.423,308.823 95.338,320.146 99.361">
        </path>
    </g>
</svg>