<svg id="svg" fill="currentColor" viewBox="-45 10 500 500"
    xmlns="http://www.w3.org/2000/svg">
    <g>
        <path id="path0" d="M108.419 56.238 C 76.567 61.527,61.414 73.942,68.790 88.706 C 71.018 93.167,73.094 92.920,85.627 86.705 C 99.709 79.722,106.772 77.833,119.097 77.751 C 143.625 77.588,152.689 87.527,152.756 114.655 L 152.772 121.301 134.908 121.824 C 108.698 122.591,92.880 125.903,80.858 133.142 C 52.249 150.368,54.097 195.341,83.974 208.981 C 106.108 219.087,133.293 214.739,151.109 198.245 L 156.057 193.663 156.057 201.535 C 156.057 208.904,156.182 209.489,157.998 210.679 C 162.406 213.568,175.414 212.970,178.654 209.729 C 180.736 207.648,180.030 99.214,177.879 90.760 C 170.951 63.523,144.305 50.280,108.419 56.238 M270.226 55.601 C 251.847 57.567,229.752 66.433,226.203 73.265 C 224.802 75.963,224.664 86.435,225.996 88.966 C 228.215 93.183,230.360 92.983,240.897 87.581 C 272.063 71.601,300.740 74.613,307.566 94.583 C 308.617 97.657,309.181 102.321,309.449 110.136 L 309.830 121.299 292.287 121.829 C 246.250 123.218,224.225 134.652,218.866 159.943 C 208.412 209.274,271.146 234.218,310.678 196.449 L 313.758 193.506 313.758 201.457 C 313.758 211.593,314.528 212.320,325.257 212.320 C 330.626 212.320,332.841 211.973,334.533 210.864 L 336.756 209.408 336.756 154.487 C 336.756 87.326,336.392 84.488,326.137 71.601 C 316.445 59.421,294.152 53.042,270.226 55.601 M152.772 157.076 L 152.772 172.058 147.228 177.298 C 121.135 201.959,88.519 197.028,88.610 168.435 C 88.670 149.491,101.477 142.286,135.318 142.160 L 152.772 142.094 152.772 157.076 M309.651 157.185 L 309.651 172.276 303.696 177.924 C 278.536 201.790,246.361 196.918,246.073 169.199 C 245.867 149.416,258.119 142.297,292.608 142.161 L 309.651 142.094 309.651 157.185 M108.419 283.754 C 76.567 289.043,61.414 301.457,68.790 316.222 C 71.018 320.682,73.094 320.435,85.627 314.220 C 99.709 307.238,106.772 305.348,119.097 305.266 C 143.625 305.104,152.689 315.042,152.756 342.170 L 152.772 348.816 134.908 349.339 C 108.698 350.107,92.880 353.419,80.858 360.658 C 52.249 377.883,54.097 422.857,83.974 436.497 C 106.108 446.602,133.293 442.255,151.109 425.760 L 156.057 421.178 156.057 429.051 C 156.057 436.419,156.182 437.004,157.998 438.194 C 162.406 441.083,175.414 440.485,178.654 437.245 C 180.736 435.163,180.030 326.729,177.879 318.275 C 170.951 291.038,144.305 277.795,108.419 283.754 M270.226 283.117 C 251.847 285.083,229.752 293.948,226.203 300.781 C 224.802 303.478,224.664 313.951,225.996 316.481 C 228.215 320.698,230.360 320.499,240.897 315.096 C 272.063 299.117,300.740 302.128,307.566 322.099 C 308.617 325.172,309.181 329.837,309.449 337.652 L 309.830 348.815 292.287 349.344 C 246.250 350.734,224.225 362.167,218.866 387.458 C 208.412 436.789,271.146 461.733,310.678 423.965 L 313.758 421.022 313.758 428.972 C 313.758 439.108,314.528 439.836,325.257 439.836 C 330.626 439.836,332.841 439.488,334.533 438.379 L 336.756 436.923 336.756 382.002 C 336.756 314.841,336.392 312.003,326.137 299.117 C 316.445 286.937,294.152 280.557,270.226 283.117 M152.772 384.592 L 152.772 399.573 147.228 404.813 C 121.135 429.474,88.519 424.543,88.610 395.951 C 88.670 377.007,101.477 369.802,135.318 369.675 L 152.772 369.610 152.772 384.592 M309.651 384.701 L 309.651 399.791 303.696 405.440 C 278.536 429.305,246.361 424.434,246.073 396.715 C 245.867 376.931,258.119 369.812,292.608 369.677 L 309.651 369.610 309.651 384.701 " stroke="none" fill-rule="evenodd"></path>
    </g>
</svg>