<svg id="svg" fill="currentColor" viewBox="-45 -25 500 500"
    xmlns="http://www.w3.org/2000/svg">
    <g>
        <path d="M26.742 17.653 C 16.015 21.474,11.098 33.461,16.010 43.814 C 16.692 45.250,23.853 53.021,31.924 61.083 L 46.600 75.741 37.839 80.126 C 21.870 88.120,18.118 92.993,18.088 105.776 C 18.052 120.842,21.172 122.890,32.767 115.410 C 43.574 108.437,63.721 99.384,68.432 99.384 C 71.947 99.384,123.554 152.079,122.841 154.942 C 117.891 174.813,97.419 185.324,62.012 186.172 C 48.179 186.503,42.646 186.923,41.346 187.739 C 36.428 190.828,36.054 206.289,40.763 211.885 L 42.856 214.374 59.124 214.374 C 99.878 214.374,121.784 221.688,132.382 238.836 L 134.118 241.645 100.940 274.883 L 67.762 308.121 64.294 307.673 C 57.545 306.800,39.845 300.372,28.628 294.720 C 12.669 286.679,11.088 287.496,11.088 303.785 C 11.088 319.361,15.740 324.605,35.318 331.098 C 38.255 332.072,40.964 333.044,41.339 333.259 C 41.715 333.474,35.762 339.985,28.111 347.728 C 15.069 360.928,14.136 362.080,13.165 366.177 C 9.687 380.850,21.583 392.753,36.287 389.313 C 40.517 388.323,41.445 387.509,65.298 363.834 L 89.938 339.378 96.099 338.829 C 136.480 335.236,163.604 315.762,172.898 283.690 C 175.056 276.242,176.725 261.837,176.048 256.490 C 175.662 253.433,175.831 253.214,187.835 241.277 L 200.013 229.165 240.660 269.819 C 275.950 305.114,281.006 310.472,279.020 310.472 C 269.297 310.472,251.954 307.097,239.076 302.699 C 226.996 298.573,225.051 300.135,225.051 313.963 C 225.051 328.501,229.567 332.174,253.310 336.942 C 264.379 339.165,291.084 339.583,301.320 337.693 L 307.362 336.578 333.353 362.435 C 358.583 387.536,359.471 388.322,363.713 389.314 C 378.416 392.751,390.294 380.870,386.846 366.177 C 385.859 361.975,385.019 361.000,364.998 340.842 L 344.176 319.878 348.800 316.202 C 377.233 293.597,391.927 247.838,390.729 185.626 C 389.668 130.488,377.562 97.302,352.331 80.367 L 350.308 79.009 367.238 61.886 C 383.318 45.623,384.219 44.545,385.198 40.394 C 388.661 25.710,376.774 13.818,362.070 17.258 C 357.834 18.248,356.932 19.044,332.620 43.226 L 307.539 68.172 301.673 68.172 C 252.921 68.172,217.687 103.143,217.662 151.554 L 217.659 158.139 208.819 166.951 L 199.980 175.764 182.219 157.902 L 164.458 140.041 163.959 130.541 C 162.014 93.532,138.953 71.036,100.355 68.496 L 92.402 67.973 67.351 43.138 C 38.572 14.608,37.383 13.862,26.742 17.653 M331.303 105.585 C 345.223 116.214,353.063 140.130,354.518 176.399 L 355.037 189.322 350.619 191.952 C 311.922 214.990,268.498 208.833,257.410 178.737 L 255.561 173.717 291.021 138.193 C 310.524 118.655,326.707 102.669,326.983 102.669 C 327.259 102.669,329.203 103.981,331.303 105.585 M161.205 190.363 L 173.313 202.491 166.024 209.747 L 158.734 217.003 153.494 212.753 C 146.724 207.263,133.725 200.874,125.763 199.124 C 122.322 198.367,118.971 197.591,118.316 197.399 C 117.661 197.208,120.074 196.029,123.678 194.781 C 131.058 192.226,140.063 186.731,144.969 181.789 C 146.776 179.969,148.444 178.425,148.676 178.357 C 148.907 178.289,154.545 183.692,161.205 190.363 M355.167 224.435 C 353.062 249.977,345.978 271.277,334.866 285.479 C 330.629 290.894,323.772 297.331,322.240 297.331 C 321.863 297.331,304.553 280.286,283.775 259.454 C 256.567 232.176,247.061 222.185,249.804 223.749 C 274.460 237.804,318.565 236.928,348.255 221.794 C 351.643 220.067,354.695 218.615,355.037 218.567 C 355.378 218.520,355.437 221.160,355.167 224.435 ">
        </path>
    </g>
</svg>