<svg id="svg" fill="currentColor" viewBox="-25 0 450 450"
    xmlns="http://www.w3.org/2000/svg">
    <g>
        <path d="M79.107 15.782 C 78.932 15.957,78.386 16.161,77.894 16.234 C 74.125 16.801,63.041 24.241,62.064 26.860 C 61.545 28.250,67.395 40.077,69.193 41.275 C 69.517 41.490,70.928 43.767,72.329 46.333 C 73.731 48.900,75.394 51.600,76.026 52.333 C 76.658 53.067,78.437 55.915,79.980 58.664 C 81.523 61.412,83.018 63.812,83.302 63.997 C 83.587 64.182,84.812 66.133,86.025 68.333 C 87.238 70.533,89.191 73.683,90.365 75.333 C 91.539 76.983,93.108 79.533,93.851 81.000 C 97.176 87.557,99.830 88.290,106.621 84.528 C 114.199 80.330,114.388 77.859,107.990 66.570 C 106.529 63.991,105.333 61.644,105.333 61.355 C 105.333 61.066,102.611 55.468,99.284 48.915 C 95.956 42.362,93.135 36.550,93.013 36.000 C 92.892 35.450,91.414 32.557,89.730 29.571 C 88.045 26.584,86.667 23.718,86.667 23.201 C 86.667 22.081,82.920 16.022,82.181 15.949 C 81.898 15.921,81.162 15.800,80.545 15.681 C 79.929 15.562,79.281 15.608,79.107 15.782 M34.994 39.943 C 32.504 40.669,21.673 46.888,20.818 48.082 C 20.352 48.734,19.535 49.703,19.003 50.235 C 17.961 51.277,20.515 56.993,24.706 63.000 C 25.729 64.467,27.836 67.917,29.389 70.667 C 30.942 73.417,32.573 75.967,33.015 76.333 C 33.456 76.700,35.075 79.318,36.613 82.151 C 38.151 84.984,39.675 87.466,40.000 87.667 C 40.325 87.868,41.863 90.350,43.418 93.183 C 44.973 96.015,46.481 98.430,46.770 98.549 C 47.058 98.668,48.560 101.068,50.107 103.882 C 54.337 111.577,56.362 112.270,63.331 108.410 C 71.278 104.009,71.490 102.277,65.394 91.520 C 63.894 88.873,62.667 86.456,62.667 86.150 C 62.667 85.843,60.093 80.508,56.948 74.296 C 53.803 68.083,51.132 62.550,51.011 62.000 C 50.891 61.450,49.414 58.557,47.730 55.571 C 46.045 52.584,44.667 49.788,44.667 49.357 C 44.667 48.925,43.692 46.795,42.500 44.622 C 40.092 40.231,38.153 39.022,34.994 39.943 M130.136 54.082 C 120.186 59.019,119.313 73.804,128.586 80.322 L 131.448 82.333 238.667 82.333 L 345.885 82.333 348.747 80.322 C 357.360 74.268,357.360 61.065,348.747 55.011 L 345.885 53.000 239.443 52.831 L 133.000 52.661 130.136 54.082 M50.136 120.750 C 40.186 125.683,39.313 140.471,48.586 146.989 L 51.448 149.000 198.667 149.000 L 345.885 149.000 348.747 146.989 C 357.360 140.935,357.360 127.732,348.747 121.678 L 345.885 119.667 199.443 119.498 L 53.000 119.329 50.136 120.750 M50.136 187.416 C 40.186 192.350,39.313 207.138,48.586 213.655 L 51.448 215.667 198.667 215.667 L 345.885 215.667 348.747 213.655 C 357.360 207.602,357.360 194.398,348.747 188.345 L 345.885 186.333 199.443 186.165 L 53.000 185.996 50.136 187.416 M50.136 254.083 C 40.186 259.017,39.313 273.804,48.586 280.322 L 51.448 282.333 198.667 282.333 L 345.885 282.333 348.747 280.322 C 357.360 274.268,357.360 261.065,348.747 255.011 L 345.885 253.000 199.443 252.831 L 53.000 252.663 50.136 254.083 M305.396 289.308 C 304.514 289.522,303.549 290.140,303.250 290.682 C 302.468 292.099,299.333 302.549,299.333 303.736 C 299.333 304.287,298.609 307.346,297.724 310.535 C 296.838 313.724,295.446 318.733,294.630 321.667 C 293.814 324.600,292.931 328.200,292.667 329.667 C 292.403 331.133,291.517 334.733,290.699 337.667 C 284.707 359.156,284.663 358.835,293.954 361.592 C 302.222 364.045,303.456 363.069,307.342 351.000 C 308.168 348.433,309.072 346.033,309.350 345.667 C 309.629 345.300,310.653 342.463,311.627 339.362 C 312.602 336.262,313.652 333.412,313.961 333.029 C 314.270 332.646,315.320 329.796,316.294 326.696 C 317.268 323.595,318.318 320.745,318.627 320.362 C 318.937 319.980,319.987 317.130,320.961 314.029 C 321.935 310.928,322.977 308.078,323.277 307.696 C 324.481 306.160,326.682 298.147,326.232 296.938 C 324.771 293.012,310.970 287.958,305.396 289.308 M351.058 304.093 C 351.214 304.346,351.085 304.653,350.772 304.776 C 350.037 305.065,346.154 318.470,343.272 330.667 C 342.882 332.317,341.837 336.085,340.948 339.040 C 340.060 341.995,339.333 344.936,339.333 345.575 C 339.333 346.214,338.600 349.346,337.703 352.535 C 332.396 371.404,332.184 374.000,335.952 374.000 C 336.345 374.000,336.667 374.229,336.667 374.508 C 336.667 375.355,344.951 377.450,347.383 377.217 C 350.083 376.959,351.330 374.940,354.554 365.607 C 358.412 354.438,361.113 347.001,362.159 344.667 C 362.735 343.383,363.715 340.533,364.338 338.333 C 364.961 336.133,365.860 333.713,366.337 332.955 C 366.814 332.197,367.859 329.347,368.660 326.622 C 369.461 323.897,370.513 321.043,370.998 320.282 C 371.483 319.520,372.354 317.302,372.932 315.353 L 373.985 311.810 371.754 309.706 C 368.384 306.527,349.376 301.373,351.058 304.093 M50.136 320.749 C 40.186 325.685,39.313 340.471,48.586 346.989 L 51.448 349.000 158.667 349.000 L 265.885 349.000 268.747 346.989 C 277.360 340.935,277.360 327.732,268.747 321.678 L 265.885 319.667 159.443 319.497 L 53.000 319.328 50.136 320.749 ">
        </path>
    </g>
</svg>