<svg id="svg" fill="currentColor" viewBox="-29 0, 450 450" xmlns="http://www.w3.org/2000/svg">
    <g>
        <path d="M50.136 54.076 C 40.184 59.036,39.313 73.804,48.586 80.322 L 51.448 82.333 85.333 82.333 L 119.218 82.333 122.080 80.322 C 130.693 74.269,130.693 61.066,122.081 55.011 L 119.220 53.000 86.110 52.824 C 53.431 52.650,52.963 52.667,50.136 54.076 M146.136 54.080 C 136.185 59.025,135.313 73.804,144.586 80.322 L 147.448 82.333 207.000 82.333 L 266.552 82.333 269.414 80.322 C 278.027 74.269,278.027 61.065,269.414 55.011 L 266.552 53.000 207.776 52.828 L 149.000 52.656 146.136 54.080 M292.136 54.073 C 282.184 59.042,281.312 73.804,290.586 80.322 L 293.448 82.333 319.667 82.333 L 345.885 82.333 348.747 80.322 C 357.360 74.269,357.360 61.066,348.748 55.011 L 345.887 53.000 320.444 52.822 C 295.578 52.647,294.935 52.676,292.136 54.073 M50.136 120.745 C 40.185 125.696,39.313 140.471,48.586 146.989 L 51.448 149.000 98.667 149.000 L 145.885 149.000 148.747 146.989 C 157.360 140.935,157.360 127.732,148.747 121.678 L 145.886 119.667 99.443 119.493 C 53.170 119.321,52.989 119.325,50.136 120.745 M175.469 120.743 C 165.518 125.701,164.646 140.471,173.920 146.989 L 176.782 149.000 212.333 149.000 L 247.885 149.000 250.747 146.989 C 259.360 140.935,259.360 127.732,250.748 121.678 L 247.886 119.667 213.110 119.491 C 178.732 119.318,178.301 119.332,175.469 120.743 M279.469 120.742 C 269.518 125.703,268.646 140.471,277.920 146.989 L 280.782 149.000 313.333 149.000 L 345.885 149.000 348.747 146.989 C 357.360 140.935,357.360 127.733,348.748 121.678 L 345.887 119.667 314.110 119.490 C 282.790 119.317,282.292 119.335,279.469 120.742 M50.136 187.409 C 40.184 192.370,39.313 207.137,48.586 213.655 L 51.448 215.667 83.667 215.667 L 115.885 215.667 118.747 213.655 C 127.360 207.602,127.360 194.399,118.748 188.345 L 115.887 186.333 84.443 186.157 C 53.463 185.983,52.958 186.002,50.136 187.409 M147.469 187.415 C 137.519 192.353,136.646 207.138,145.920 213.655 L 148.782 215.667 247.333 215.667 L 345.885 215.667 348.747 213.655 C 357.360 207.602,357.360 194.398,348.747 188.345 L 345.885 186.333 248.109 186.164 L 150.333 185.994 147.469 187.415 M50.136 254.082 C 40.186 259.020,39.313 273.804,48.586 280.322 L 51.448 282.333 147.333 282.333 L 243.218 282.333 246.080 280.322 C 254.693 274.268,254.693 261.065,246.080 255.011 L 243.219 253.000 148.109 252.830 L 53.000 252.660 50.136 254.082 M269.469 254.077 C 259.518 259.033,258.646 273.804,267.920 280.322 L 270.782 282.333 308.333 282.333 L 345.885 282.333 348.747 280.322 C 357.360 274.269,357.360 261.066,348.748 255.011 L 345.886 253.000 309.110 252.825 C 272.693 252.652,272.305 252.664,269.469 254.077 M50.136 320.743 C 40.185 325.700,39.313 340.471,48.586 346.989 L 51.448 349.000 89.667 349.000 L 127.885 349.000 130.747 346.989 C 139.360 340.935,139.360 327.732,130.748 321.678 L 127.886 319.667 90.443 319.492 C 53.346 319.318,52.974 319.330,50.136 320.743 M160.136 320.745 C 150.185 325.696,149.313 340.471,158.586 346.989 L 161.448 349.000 208.000 349.000 L 254.552 349.000 257.414 346.989 C 266.027 340.935,266.027 327.732,257.414 321.678 L 254.553 319.667 208.776 319.493 C 163.183 319.320,162.989 319.325,160.136 320.745 M285.469 320.741 C 275.517 325.706,274.646 340.471,283.920 346.989 L 286.782 349.000 316.333 349.000 L 345.885 349.000 348.747 346.989 C 357.360 340.935,357.360 327.733,348.748 321.678 L 345.887 319.667 317.110 319.489 C 288.848 319.315,288.282 319.338,285.469 320.741">
        </path>
    </g>
</svg>